<svg width="232" height="9" viewBox="0 0 232 9" fill="none" xmlns="http://www.w3.org/2000/svg">
<path d="M112.058 8.676C111.178 8.676 110.442 8.488 109.85 8.112C109.258 7.736 108.81 7.22 108.506 6.564C108.21 5.908 108.062 5.168 108.062 4.344C108.062 3.512 108.21 2.768 108.506 2.112C108.81 1.456 109.258 0.94 109.85 0.564C110.442 0.188 111.178 0 112.058 0C112.938 0 113.67 0.188 114.254 0.564C114.846 0.94 115.29 1.456 115.586 2.112C115.89 2.768 116.042 3.512 116.042 4.344C116.042 5.168 115.89 5.908 115.586 6.564C115.29 7.22 114.846 7.736 114.254 8.112C113.67 8.488 112.938 8.676 112.058 8.676ZM112.058 7.728C112.73 7.728 113.282 7.576 113.714 7.272C114.146 6.96 114.462 6.548 114.662 6.036C114.87 5.524 114.974 4.96 114.974 4.344C114.974 3.88 114.914 3.444 114.794 3.036C114.682 2.62 114.506 2.256 114.266 1.944C114.026 1.632 113.722 1.388 113.354 1.212C112.986 1.036 112.554 0.948 112.058 0.948C111.394 0.948 110.842 1.104 110.402 1.416C109.97 1.728 109.646 2.14 109.43 2.652C109.222 3.164 109.118 3.728 109.118 4.344C109.118 4.952 109.222 5.512 109.43 6.024C109.638 6.536 109.958 6.948 110.39 7.26C110.83 7.572 111.386 7.728 112.058 7.728Z" fill="#B2E2F3"/>
<path d="M117.659 8.58V0.0960002H120.839C121.311 0.0960002 121.731 0.144 122.099 0.24C122.475 0.336 122.795 0.488 123.059 0.696C123.323 0.904 123.523 1.18 123.659 1.524C123.803 1.86 123.875 2.268 123.875 2.748C123.875 3.22 123.787 3.624 123.611 3.96C123.435 4.288 123.203 4.556 122.915 4.764C122.627 4.972 122.315 5.124 121.979 5.22L123.755 8.58H122.615L120.923 5.4H118.703V8.58H117.659ZM118.703 4.452H120.503C120.815 4.452 121.107 4.428 121.379 4.38C121.659 4.332 121.903 4.248 122.111 4.128C122.327 4 122.495 3.824 122.615 3.6C122.735 3.368 122.799 3.072 122.807 2.712C122.815 2.304 122.739 1.98 122.579 1.74C122.419 1.492 122.183 1.316 121.871 1.212C121.559 1.1 121.179 1.044 120.731 1.044H118.703V4.452Z" fill="#B2E2F3"/>
<path fill-rule="evenodd" clip-rule="evenodd" d="M83 5.33008H0V3.83008H83V5.33008ZM232 5.33008H149V3.83008H232V5.33008Z" fill="#B2E2F3"/>
</svg>
