<svg width="9" height="11" viewBox="0 0 9 11" fill="none" xmlns="http://www.w3.org/2000/svg">
<path d="M2.72038 1.88843C2.72038 2.77004 3.28436 3.50638 4.05687 3.71175V6.88251C4.05687 8.3602 4.30806 9.16667 4.49763 9.16667C4.69194 9.16667 4.93839 8.36521 4.93839 6.88251V3.71175C5.7109 3.51138 6.27962 2.77004 6.27962 1.88843C6.27962 0.851548 5.48815 0 4.49763 0C3.51185 0 2.72038 0.851548 2.72038 1.88843ZM3.99052 1.99362C3.66825 1.99362 3.38389 1.69308 3.38389 1.34244C3.38389 0.996812 3.66825 0.701275 3.99052 0.701275C4.32701 0.701275 4.6019 0.996812 4.6019 1.34244C4.6019 1.69308 4.32701 1.99362 3.99052 1.99362ZM4.50237 11C7.36019 11 9 9.95811 9 8.8561C9 7.5337 7.01422 6.72723 5.7109 6.7122V7.44353C6.62559 7.45856 8.04265 7.98452 8.04265 8.73588C8.04265 9.59745 6.54028 10.2086 4.50237 10.2086C2.45498 10.2086 0.962085 9.60747 0.962085 8.73588C0.962085 7.98452 2.37441 7.45856 3.2891 7.44353V6.7122C1.98578 6.72723 0 7.5337 0 8.8561C0 9.95811 1.64455 11 4.50237 11Z" fill="white"/>
</svg>
