<svg width="274" height="40" viewBox="0 0 274 40" fill="none" xmlns="http://www.w3.org/2000/svg">
<path d="M0.129032 31V29.4903C1.44516 29.4387 2.4129 29.3355 3.03226 29.1806C3.65161 29 4.06452 28.6903 4.27097 28.2516C4.47742 27.7871 4.58065 27.0903 4.58065 26.1613V8.43226C4.58065 7.50323 4.47742 6.81936 4.27097 6.38065C4.06452 5.91613 3.65161 5.59355 3.03226 5.4129C2.4129 5.23226 1.44516 5.12903 0.129032 5.10323V3.59355C0.903226 3.61936 1.81935 3.64516 2.87742 3.67097C3.93548 3.67097 5.23871 3.67097 6.7871 3.67097C7.50968 3.67097 8.23226 3.67097 8.95484 3.67097C9.70323 3.64516 10.4 3.63226 11.0452 3.63226C11.7161 3.60645 12.2581 3.59355 12.671 3.59355C17.6774 3.59355 21.4581 4.70323 24.0129 6.92258C26.5677 9.14194 27.8452 12.4065 27.8452 16.7161C27.8452 19.7355 27.2387 22.3161 26.0258 24.4581C24.8129 26.5742 23.0581 28.2 20.7613 29.3355C18.4903 30.4452 15.7548 31 12.5548 31C11.8839 31 11.071 30.9871 10.1161 30.9613C9.1871 30.9097 8.07742 30.8839 6.7871 30.8839C5.47097 30.8839 4.21935 30.8968 3.03226 30.9226C1.84516 30.9484 0.877419 30.9742 0.129032 31ZM12.3613 29.529C16.0516 29.529 18.7484 28.5484 20.4516 26.5871C22.1806 24.6258 23.0452 21.5161 23.0452 17.2581C23.0452 12.9742 22.1935 9.87742 20.4903 7.96774C18.8129 6.03226 16.1032 5.06452 12.3613 5.06452H9.07097V26.2387C9.07097 27.1677 9.14839 27.8774 9.30323 28.3677C9.48387 28.8323 9.80645 29.1419 10.271 29.2968C10.7355 29.4516 11.4323 29.529 12.3613 29.529ZM31.7455 31V29.4903C33.3197 29.4645 34.4035 29.2581 34.9971 28.871C35.5906 28.4581 35.8874 27.7355 35.8874 26.7032V15.9419C35.8874 14.729 35.5648 13.8774 34.9197 13.3871C34.3003 12.871 33.2422 12.5871 31.7455 12.5355V11.0258C32.339 11.0516 32.8939 11.0774 33.41 11.1032C33.9519 11.129 34.5197 11.1419 35.1132 11.1419C36.9455 11.1419 38.61 10.9613 40.1068 10.6V26.471C40.1068 27.5548 40.4939 28.329 41.268 28.7935C42.0422 29.2323 43.3842 29.4645 45.2939 29.4903V31C44.8293 30.9742 44.1971 30.9613 43.3971 30.9613C42.5971 30.9355 41.7326 30.9097 40.8035 30.8839C39.8745 30.8581 38.9584 30.8452 38.0551 30.8452C36.7906 30.8452 35.5648 30.871 34.3777 30.9226C33.2164 30.9484 32.339 30.9742 31.7455 31ZM47.1906 17.5677C46.5971 17.5677 46.1197 17.4129 45.7584 17.1032C45.3971 16.7677 45.2164 16.3419 45.2164 15.8258C45.2164 15.4645 45.2809 15.1548 45.41 14.8968C45.5648 14.6129 45.7068 14.3419 45.8358 14.0839C45.9648 13.8258 46.0293 13.5806 46.0293 13.3484C46.0293 12.8065 45.6422 12.5355 44.868 12.5355C44.2745 12.5355 43.6422 12.6903 42.9713 13C42.3261 13.2839 41.7326 13.6839 41.1906 14.2C40.6487 14.6903 40.2487 15.2581 39.9906 15.9032L39.8745 14.2774C40.5713 13.0903 41.4616 12.1613 42.5455 11.4903C43.6293 10.8194 44.7648 10.4839 45.9519 10.4839C47.1648 10.4839 48.1197 10.8323 48.8164 11.529C49.539 12.2258 49.9003 13.1548 49.9003 14.3161C49.9003 15.2968 49.6422 16.0839 49.1261 16.6774C48.6358 17.271 47.9906 17.5677 47.1906 17.5677ZM52.4642 31V29.4903C53.9868 29.4645 55.0578 29.2581 55.6771 28.871C56.2965 28.4839 56.6061 27.7613 56.6061 26.7032V15.9419C56.6061 14.7548 56.2965 13.9032 55.6771 13.3871C55.0836 12.871 54.0126 12.5871 52.4642 12.5355V11.0258C52.9803 11.0516 53.5094 11.0774 54.0513 11.1032C54.5932 11.129 55.1481 11.1419 55.7158 11.1419C56.6707 11.1419 57.5739 11.1032 58.4255 11.0258C59.3029 10.9226 60.1029 10.7806 60.8255 10.6V26.7032C60.8255 27.7613 61.1223 28.4839 61.7158 28.871C62.3352 29.2581 63.4191 29.4645 64.9674 29.4903V31C64.5803 30.9742 64.0384 30.9613 63.3416 30.9613C62.6707 30.9355 61.9223 30.9097 61.0965 30.8839C60.2965 30.8581 59.5094 30.8452 58.7352 30.8452C57.5481 30.8452 56.3481 30.871 55.1352 30.9226C53.9481 30.9484 53.0578 30.9742 52.4642 31ZM58.5803 6.65161C57.832 6.65161 57.1739 6.39355 56.6061 5.87742C56.0642 5.36129 55.7932 4.70323 55.7932 3.90323C55.7932 3.10323 56.0642 2.44516 56.6061 1.92903C57.1739 1.4129 57.832 1.15484 58.5803 1.15484C59.3545 1.15484 60.0126 1.4129 60.5545 1.92903C61.1223 2.44516 61.4061 3.10323 61.4061 3.90323C61.4061 4.70323 61.1223 5.36129 60.5545 5.87742C60.0126 6.39355 59.3545 6.65161 58.5803 6.65161ZM66.6776 39.9419V38.4323C68.226 38.4065 69.297 38.1871 69.8905 37.7742C70.5099 37.3871 70.8196 36.6774 70.8196 35.6452V15.9419C70.8196 14.729 70.497 13.8774 69.8518 13.3871C69.2325 12.871 68.1744 12.5871 66.6776 12.5355V11.0258C67.1937 11.0516 67.7228 11.0774 68.2647 11.1032C68.8067 11.129 69.3744 11.1419 69.9679 11.1419C71.8518 11.1419 73.5421 10.9613 75.0389 10.6V35.4129C75.0389 36.4968 75.426 37.2581 76.2002 37.6968C77.0002 38.1613 78.3421 38.4065 80.226 38.4323V39.9419C79.7615 39.9161 79.1292 39.8903 78.3292 39.8645C77.5292 39.8645 76.6518 39.8516 75.697 39.8258C74.7679 39.8 73.8518 39.7871 72.9486 39.7871C71.6583 39.7871 70.4325 39.8 69.2712 39.8258C68.1357 39.8774 67.2712 39.9161 66.6776 39.9419ZM80.1486 31.5419C78.8067 31.5419 77.6325 31.2839 76.626 30.7677C75.6454 30.2258 74.9615 29.5032 74.5744 28.6L74.8067 27.2452C75.1679 28.0194 75.7357 28.6258 76.5099 29.0645C77.2841 29.5032 78.1486 29.7226 79.1034 29.7226C80.9099 29.7226 82.2905 28.9742 83.2454 27.4774C84.2002 25.9548 84.6776 23.7484 84.6776 20.8581C84.6776 18.2 84.2518 16.1613 83.4002 14.7419C82.5744 13.2968 81.3615 12.5742 79.7615 12.5742C78.7034 12.5742 77.697 12.9097 76.7421 13.5806C75.7873 14.2516 75.1163 15.1161 74.7292 16.1742L74.5357 14.9742C74.9486 13.6581 75.7744 12.5871 77.0131 11.7613C78.2518 10.9097 79.6841 10.4839 81.3099 10.4839C82.9099 10.4839 84.3034 10.9097 85.4905 11.7613C86.6776 12.5871 87.5808 13.7613 88.2002 15.2839C88.8454 16.7806 89.1679 18.5613 89.1679 20.6258C89.1679 22.871 88.7937 24.8194 88.0454 26.471C87.3228 28.0968 86.2776 29.3484 84.9099 30.2258C83.5679 31.1032 81.9808 31.5419 80.1486 31.5419ZM129.829 31.271L121.391 8.39355C120.926 7.18065 120.397 6.34194 119.804 5.87742C119.21 5.3871 118.358 5.12903 117.249 5.10323V3.59355C117.894 3.61936 118.707 3.64516 119.688 3.67097C120.694 3.69677 121.804 3.70968 123.017 3.70968C124.023 3.70968 124.939 3.70968 125.765 3.70968C126.591 3.68387 127.313 3.67097 127.933 3.67097C128.552 3.64516 129.068 3.61936 129.481 3.59355V5.10323C128.242 5.12903 127.326 5.24516 126.733 5.45161C126.139 5.63226 125.804 5.95484 125.726 6.41936C125.675 6.88387 125.817 7.56774 126.152 8.47097L132.307 25.271L131.649 25.5419L136.487 11.2968C137.004 9.82581 137.236 8.65161 137.184 7.77419C137.158 6.89677 136.81 6.25161 136.139 5.83871C135.468 5.4 134.423 5.15484 133.004 5.10323V3.59355C133.752 3.61936 134.475 3.64516 135.171 3.67097C135.894 3.67097 136.604 3.68387 137.3 3.70968C137.997 3.70968 138.668 3.70968 139.313 3.70968C140.113 3.70968 140.875 3.69677 141.597 3.67097C142.346 3.64516 143.107 3.61936 143.881 3.59355V5.10323C143.004 5.15484 142.229 5.34839 141.558 5.68387C140.913 6.01936 140.346 6.52258 139.855 7.19355C139.391 7.86452 138.965 8.76774 138.578 9.90323L131.262 31.271H129.829ZM115.275 31.271L106.758 8.39355C106.294 7.15484 105.7 6.30323 104.978 5.83871C104.281 5.3742 103.262 5.12903 101.92 5.10323V3.59355C102.617 3.61936 103.507 3.64516 104.591 3.67097C105.7 3.69677 106.939 3.70968 108.307 3.70968C109.288 3.70968 110.178 3.70968 110.978 3.70968C111.804 3.68387 112.526 3.67097 113.146 3.67097C113.765 3.64516 114.268 3.61936 114.655 3.59355V5.10323C113.494 5.12903 112.629 5.24516 112.062 5.45161C111.494 5.63226 111.184 5.95484 111.133 6.41936C111.107 6.88387 111.249 7.56774 111.558 8.47097L117.946 25.7355L116.978 26.2387L122.978 9.12903L123.829 11.1806L116.707 31.271H115.275ZM153.134 31.5419C151.25 31.5419 149.611 31.129 148.218 30.3032C146.824 29.4516 145.74 28.2387 144.966 26.6645C144.218 25.0903 143.844 23.2323 143.844 21.0903C143.844 18.8968 144.231 17.0129 145.005 15.4387C145.779 13.8387 146.889 12.6129 148.334 11.7613C149.779 10.9097 151.482 10.4839 153.444 10.4839C155.173 10.4839 156.656 10.8194 157.895 11.4903C159.134 12.1355 160.076 13.1548 160.721 14.5484C161.366 15.9419 161.663 17.7484 161.611 19.9677H146.747L146.708 18.4968H157.469C157.495 17.2581 157.366 16.1484 157.082 15.1677C156.798 14.1871 156.334 13.4129 155.689 12.8452C155.069 12.2774 154.269 11.9935 153.289 11.9935C152.05 11.9935 150.953 12.5484 149.998 13.6581C149.069 14.7419 148.515 16.471 148.334 18.8452L148.411 18.9613C148.385 19.2194 148.36 19.5032 148.334 19.8129C148.334 20.0968 148.334 20.4194 148.334 20.7806C148.334 23.4387 148.85 25.5161 149.882 27.0129C150.94 28.4839 152.437 29.2194 154.373 29.2194C155.663 29.2194 156.798 28.8968 157.779 28.2516C158.785 27.6065 159.624 26.6129 160.295 25.271L161.65 26.0839C160.953 27.8129 159.856 29.1548 158.36 30.1097C156.889 31.0645 155.147 31.5419 153.134 31.5419ZM172.197 31.5419C170.468 31.5419 169.087 31.0903 168.055 30.1871C167.048 29.2839 166.545 28.0581 166.545 26.5097C166.545 25.3226 166.829 24.3548 167.397 23.6065C167.965 22.8581 168.7 22.2645 169.603 21.8258C170.532 21.3613 171.5 20.9871 172.507 20.7032C173.513 20.3935 174.468 20.1226 175.371 19.8903C176.274 19.6323 177.01 19.3226 177.578 18.9613C178.145 18.6 178.429 18.1355 178.429 17.5677V15.7097C178.429 14.4968 178.081 13.5806 177.384 12.9613C176.713 12.3419 175.694 12.0323 174.326 12.0323C173.345 12.0323 172.519 12.1742 171.848 12.4581C171.203 12.7419 170.881 13.0903 170.881 13.5032C170.881 13.7613 170.971 14.0323 171.152 14.3161C171.332 14.6 171.513 14.9097 171.694 15.2452C171.874 15.5806 171.965 15.9419 171.965 16.329C171.965 16.8452 171.758 17.271 171.345 17.6065C170.958 17.9161 170.442 18.071 169.797 18.071C169.048 18.071 168.442 17.8387 167.978 17.3742C167.539 16.9097 167.319 16.2903 167.319 15.5161C167.319 14.5355 167.681 13.671 168.403 12.9226C169.126 12.1742 170.119 11.5806 171.384 11.1419C172.648 10.7032 174.068 10.4839 175.642 10.4839C177.294 10.4839 178.636 10.729 179.668 11.2194C180.7 11.7097 181.448 12.4839 181.913 13.5419C182.403 14.5742 182.648 15.9419 182.648 17.6452V27.7871C182.648 28.4065 182.752 28.8581 182.958 29.1419C183.165 29.4 183.487 29.529 183.926 29.529C184.313 29.529 184.713 29.4387 185.126 29.2581C185.539 29.0516 185.952 28.7935 186.365 28.4839L187.061 29.7226C186.39 30.3161 185.668 30.7677 184.894 31.0774C184.119 31.3871 183.242 31.5419 182.261 31.5419C179.732 31.5419 178.455 30.4323 178.429 28.2129C177.681 29.3226 176.79 30.1613 175.758 30.729C174.726 31.271 173.539 31.5419 172.197 31.5419ZM174.016 29.0258C174.868 29.0258 175.668 28.8194 176.416 28.4065C177.19 27.9935 177.861 27.3742 178.429 26.5484V19.5806C178.171 19.9935 177.745 20.3419 177.152 20.6258C176.584 20.9097 175.939 21.1935 175.216 21.4774C174.519 21.7355 173.836 22.0452 173.165 22.4065C172.494 22.7677 171.939 23.2323 171.5 23.8C171.061 24.3419 170.842 25.0516 170.842 25.929C170.842 26.9097 171.113 27.671 171.655 28.2129C172.223 28.7548 173.01 29.0258 174.016 29.0258ZM197.963 31.5419C195.976 31.5419 194.492 30.9871 193.511 29.8774C192.557 28.7419 192.079 27.0387 192.079 24.7677V12.5355H187.55V11.0645H192.079V5.25807C192.879 5.23226 193.628 5.16774 194.324 5.06452C195.021 4.96129 195.679 4.81935 196.298 4.63871V11.0645H202.763V12.5355H196.298V25.929C196.298 27.0903 196.518 27.9548 196.957 28.5226C197.421 29.0645 198.131 29.3355 199.086 29.3355C199.963 29.3355 200.686 29.0516 201.253 28.4839C201.847 27.9161 202.311 27.0903 202.647 26.0065L203.808 26.3935C203.369 28.1742 202.673 29.4774 201.718 30.3032C200.789 31.129 199.537 31.5419 197.963 31.5419ZM219.377 31V29.4903C220.435 29.4645 221.158 29.2581 221.545 28.871C221.958 28.4581 222.164 27.7355 222.164 26.7032V17.4516C222.164 15.8774 221.855 14.6903 221.235 13.8903C220.616 13.0903 219.687 12.6903 218.448 12.6903C217.442 12.6903 216.513 12.9742 215.661 13.5419C214.81 14.0839 214.061 14.8839 213.416 15.9419L213.455 14.2387C214.1 13.0516 215.003 12.1355 216.164 11.4903C217.352 10.8194 218.668 10.4839 220.113 10.4839C222.126 10.4839 223.674 11.1161 224.758 12.3806C225.868 13.6452 226.422 15.4516 226.422 17.8V26.7032C226.422 27.7355 226.719 28.4581 227.313 28.871C227.906 29.2581 228.99 29.4645 230.564 29.4903V31C230.177 30.9742 229.635 30.9613 228.939 30.9613C228.268 30.9355 227.519 30.9097 226.693 30.8839C225.893 30.8581 225.119 30.8452 224.371 30.8452C223.39 30.8452 222.422 30.871 221.468 30.9226C220.539 30.9484 219.842 30.9742 219.377 31ZM205.287 31V29.4903C206.861 29.4645 207.945 29.2581 208.539 28.871C209.132 28.4581 209.429 27.7355 209.429 26.7032V6.03226C209.429 4.81936 209.119 3.96774 208.5 3.47742C207.881 2.96129 206.81 2.67742 205.287 2.62581V1.11613C205.829 1.14194 206.371 1.16774 206.913 1.19355C207.455 1.21935 208.01 1.23226 208.577 1.23226C209.506 1.23226 210.397 1.19355 211.248 1.11613C212.1 1.0129 212.9 0.870968 213.648 0.690323V26.7032C213.648 27.7355 213.842 28.4581 214.229 28.871C214.642 29.2581 215.377 29.4645 216.435 29.4903V31C215.919 30.9742 215.21 30.9484 214.306 30.9226C213.403 30.871 212.474 30.8452 211.519 30.8452C210.41 30.8452 209.261 30.871 208.074 30.9226C206.913 30.9484 205.984 30.9742 205.287 31ZM242.946 31.5419C241.062 31.5419 239.424 31.129 238.03 30.3032C236.637 29.4516 235.553 28.2387 234.779 26.6645C234.03 25.0903 233.656 23.2323 233.656 21.0903C233.656 18.8968 234.043 17.0129 234.817 15.4387C235.592 13.8387 236.701 12.6129 238.146 11.7613C239.592 10.9097 241.295 10.4839 243.256 10.4839C244.985 10.4839 246.469 10.8194 247.708 11.4903C248.946 12.1355 249.888 13.1548 250.533 14.5484C251.179 15.9419 251.475 17.7484 251.424 19.9677H236.559L236.521 18.4968H247.282C247.308 17.2581 247.179 16.1484 246.895 15.1677C246.611 14.1871 246.146 13.4129 245.501 12.8452C244.882 12.2774 244.082 11.9935 243.101 11.9935C241.862 11.9935 240.766 12.5484 239.811 13.6581C238.882 14.7419 238.327 16.471 238.146 18.8452L238.224 18.9613C238.198 19.2194 238.172 19.5032 238.146 19.8129C238.146 20.0968 238.146 20.4194 238.146 20.7806C238.146 23.4387 238.662 25.5161 239.695 27.0129C240.753 28.4839 242.25 29.2194 244.185 29.2194C245.475 29.2194 246.611 28.8968 247.592 28.2516C248.598 27.6065 249.437 26.6129 250.108 25.271L251.462 26.0839C250.766 27.8129 249.669 29.1548 248.172 30.1097C246.701 31.0645 244.959 31.5419 242.946 31.5419ZM255.245 31V29.4903C256.82 29.4645 257.904 29.2581 258.497 28.871C259.091 28.4581 259.387 27.7355 259.387 26.7032V15.9419C259.387 14.729 259.065 13.8774 258.42 13.3871C257.8 12.871 256.742 12.5871 255.245 12.5355V11.0258C255.839 11.0516 256.394 11.0774 256.91 11.1032C257.452 11.129 258.02 11.1419 258.613 11.1419C260.445 11.1419 262.11 10.9613 263.607 10.6V26.471C263.607 27.5548 263.994 28.329 264.768 28.7935C265.542 29.2323 266.884 29.4645 268.794 29.4903V31C268.329 30.9742 267.697 30.9613 266.897 30.9613C266.097 30.9355 265.233 30.9097 264.304 30.8839C263.374 30.8581 262.458 30.8452 261.555 30.8452C260.291 30.8452 259.065 30.871 257.878 30.9226C256.716 30.9484 255.839 30.9742 255.245 31ZM270.691 17.5677C270.097 17.5677 269.62 17.4129 269.258 17.1032C268.897 16.7677 268.716 16.3419 268.716 15.8258C268.716 15.4645 268.781 15.1548 268.91 14.8968C269.065 14.6129 269.207 14.3419 269.336 14.0839C269.465 13.8258 269.529 13.5806 269.529 13.3484C269.529 12.8065 269.142 12.5355 268.368 12.5355C267.774 12.5355 267.142 12.6903 266.471 13C265.826 13.2839 265.233 13.6839 264.691 14.2C264.149 14.6903 263.749 15.2581 263.491 15.9032L263.374 14.2774C264.071 13.0903 264.962 12.1613 266.045 11.4903C267.129 10.8194 268.265 10.4839 269.452 10.4839C270.665 10.4839 271.62 10.8323 272.316 11.529C273.039 12.2258 273.4 13.1548 273.4 14.3161C273.4 15.2968 273.142 16.0839 272.626 16.6774C272.136 17.271 271.491 17.5677 270.691 17.5677Z" fill="white"/>
</svg>
