<svg width="32" height="32" viewBox="0 0 32 32" fill="none" xmlns="http://www.w3.org/2000/svg">
<path d="M18.8175 1.12137C19.2256 0.856911 19.3994 0.257068 18.9136 0.0657385C18.4285 -0.124852 18.1039 0.104891 18.0781 0.67814C18.342 0.945558 18.4796 1.08665 18.8175 1.12137Z" fill="url(#paint0_linear_250_1100)"/>
<path d="M2.9944 2.59882C3.5519 2.68156 3.96079 1.81282 3.49349 1.51955C3.02693 1.22701 2.52636 1.62888 2.55076 2.15559C2.6942 2.34027 2.94338 2.44369 2.9944 2.59882Z" fill="url(#paint1_linear_250_1100)"/>
<path d="M18.7435 5.70146C18.359 4.98268 17.6204 4.11468 16.8137 3.49267C16.0078 2.87067 15.5065 2.52347 14.7338 2.19843C13.9611 1.87266 13.2535 1.62962 12.2923 1.51955C11.3318 1.41021 9.95434 1.46636 9.1129 1.68354C8.27221 1.90073 7.54465 2.20582 6.85775 2.58478C6.17159 2.96449 5.33829 3.5924 4.5989 4.42347C3.8595 5.25527 3.42548 5.86693 3.09718 6.60639C2.76889 7.34512 2.52415 8.14368 2.45983 9.00872C2.39624 9.87377 1.94077 11.6437 2.92047 11.759C3.33305 10.9427 2.93748 9.63368 3.1726 8.78563C3.40773 7.93757 3.58223 7.32222 3.91274 6.64481C4.24399 5.9674 4.644 5.43995 5.34199 4.72265C6.03998 4.00609 6.68547 3.46017 7.35462 3.11371C8.02378 2.76725 8.79792 2.52569 9.59351 2.33214C10.3884 2.13933 11.4516 2.16519 12.2553 2.27378C13.0591 2.38311 13.7844 2.54563 14.472 2.85146C15.1597 3.15803 15.6676 3.50671 16.3834 4.07036C17.0999 4.634 17.7276 5.39267 18.0781 6.07082C18.416 6.10184 18.6215 5.95779 18.7435 5.70146Z" fill="url(#paint2_linear_250_1100)"/>
<path d="M28.1338 2.15559C26.604 2.29373 25.6288 4.50103 26.6033 5.6793C27.5771 6.8583 29.7576 6.97502 30.4711 5.3875C31.1838 3.79999 29.9187 1.99455 28.1338 2.15559Z" fill="url(#paint3_linear_250_1100)"/>
<path d="M17.6344 7.62214C17.2854 6.09076 15.3512 4.66724 14.0794 3.93813C12.8077 3.20901 10.2967 3.19792 8.78018 3.72168C7.26294 4.24543 5.64736 5.64901 4.89909 7.23431C4.15008 8.81961 3.88538 10.6073 4.54714 12.4238C3.33601 12.6942 2.48644 12.8722 1.57107 13.8089C0.656441 14.7464 0.286743 15.4696 0.080452 16.7269C-0.125839 17.9835 0.0723187 19.2452 0.586198 20.1236C1.10008 21.0019 2.21804 22.0575 3.1238 22.4564C4.02882 22.8553 6.10726 22.8782 7.57866 22.9137C7.24223 20.5188 7.48771 18.8603 8.41048 17.1701C9.33324 15.4807 11.3658 14.0638 12.8838 13.4403C14.4018 12.8168 17.3017 12.8168 18.836 13.5031C20.3702 14.1886 22.2786 15.4696 23.1207 17.1332C23.9629 18.7968 24.462 20.5646 23.9932 22.9137C26.2617 22.8746 27.8573 23.0016 29.1912 21.9017C30.5243 20.8017 31.3931 19.6508 31.4131 18.0152C31.4338 16.3804 31.0818 14.9599 29.8899 13.9198C28.6987 12.8789 27.6473 12.2214 25.8417 12.4238C26.0754 10.2616 24.7755 8.34313 23.0875 7.35546C21.4002 6.36852 19.1206 6.76079 17.6344 7.62214ZM11.2756 6.07082C10.4889 6.31164 9.74804 6.38034 9.18315 6.71425C8.61751 7.04889 7.94096 7.5948 7.64299 8.20721C7.34501 8.81961 7.32948 9.50071 7.06108 10.2815C6.79786 10.2682 6.71283 10.1892 6.46957 10.0599C6.46957 9.30273 6.7254 8.54037 6.92282 8.07128C7.12023 7.60219 7.56387 6.93513 8.10363 6.52144C8.64339 6.10776 9.03009 5.88835 9.59351 5.71623C10.1562 5.54411 11.2623 5.18804 11.2756 6.07082Z" fill="url(#paint4_linear_250_1100)"/>
<path d="M30.6478 9.98605C31.0559 9.72159 31.2297 9.12175 30.7439 8.93042C30.2589 8.73983 29.9343 8.96957 29.9084 9.54282C30.1724 9.81024 30.3099 9.95133 30.6478 9.98605Z" fill="url(#paint5_linear_250_1100)"/>
<path d="M15.7859 32C17.0984 30.0594 19.5561 28.3743 21.1273 26.6258C22.6986 24.8765 23.3123 23.6812 23.4017 21.3624C23.4912 19.0435 22.6882 17.4841 21.165 15.9143C19.6426 14.3445 17.9139 13.5873 15.6543 13.622C13.3955 13.6568 11.7415 14.4502 10.222 15.9512C8.70254 17.4531 8.06445 19.3885 8.12212 21.68C8.18053 23.9723 9.15135 25.0567 10.6287 26.8105C12.106 28.5649 14.6576 30.1443 15.7859 32ZM15.1944 15.3787C16.7109 15.2133 17.7564 15.7481 18.8396 16.3169C19.9221 16.8865 20.8249 18.1851 21.1976 19.0908C21.5702 19.9972 21.8497 21.8108 21.4505 22.8214C21.0512 23.8319 20.6379 24.9991 19.5384 25.8501C18.4382 26.7011 17.8821 26.8289 16.4329 27.1097C14.9837 27.3911 13.8206 26.795 12.8454 26.3429C11.8701 25.8915 10.8143 24.5219 10.4194 23.6694C10.0253 22.8169 9.76357 20.9487 10.0778 19.8665C10.3921 18.7842 10.9717 17.5639 12.0668 16.7601C13.1626 15.9564 13.763 15.5346 15.1944 15.3787Z" fill="url(#paint6_linear_250_1100)"/>
<path d="M15.2684 16.1175C13.8295 16.3339 12.3101 17.3016 11.4427 18.4998C10.5754 19.698 10.5059 21.5323 10.9326 22.9359C11.3599 24.3387 12.5629 25.548 13.882 26.0614C15.2004 26.5741 17.1287 26.5748 18.2977 25.7186C19.4659 24.8617 20.7998 23.7507 20.8826 22.1809C20.9662 20.6111 20.7613 18.9231 19.6382 17.883C18.5151 16.8429 17.0644 15.8478 15.2684 16.1175ZM15.4163 17.5949C17.3712 17.4006 19.253 18.9194 19.4526 20.9007C19.6522 22.8819 18.0108 24.8359 16.0758 24.9031C14.1408 24.9711 12.347 23.6724 12.1777 21.7133C12.0084 19.7542 13.4221 17.7936 15.4163 17.5949Z" fill="url(#paint7_linear_250_1100)"/>
<path d="M31.0175 25.1299C31.4256 24.8654 31.5994 24.2656 31.1136 24.0742C30.6286 23.8836 30.304 24.1134 30.2781 24.6866C30.5421 24.9541 30.6796 25.0952 31.0175 25.1299Z" fill="url(#paint8_linear_250_1100)"/>
<path d="M2.69866 25.4254C0.862737 25.7925 1.24279 28.5967 3.16078 28.3995C5.07803 28.203 4.627 25.0397 2.69866 25.4254Z" fill="url(#paint9_linear_250_1100)"/>
<path d="M24.7326 29.9316C25.1408 29.6671 25.3145 29.0673 24.8287 28.8759C24.3437 28.6854 24.0191 28.9151 23.9932 29.4883C24.2572 29.7558 24.3947 29.8969 24.7326 29.9316Z" fill="url(#paint10_linear_250_1100)"/>
<path d="M8.7617 29.6361C8.08811 29.5674 7.87516 30.6733 8.59755 30.7604C9.31994 30.8476 9.47521 29.7085 8.7617 29.6361Z" fill="url(#paint11_linear_250_1100)"/>
<defs>
<linearGradient id="paint0_linear_250_1100" x1="4.27839" y1="4.57143" x2="23.6782" y2="6.56856" gradientUnits="userSpaceOnUse">
<stop stop-color="white"/>
<stop offset="1" stop-color="#B2E2F3"/>
</linearGradient>
<linearGradient id="paint1_linear_250_1100" x1="4.27839" y1="4.57143" x2="23.6782" y2="6.56856" gradientUnits="userSpaceOnUse">
<stop stop-color="white"/>
<stop offset="1" stop-color="#B2E2F3"/>
</linearGradient>
<linearGradient id="paint2_linear_250_1100" x1="4.27839" y1="4.57143" x2="23.6782" y2="6.56856" gradientUnits="userSpaceOnUse">
<stop stop-color="white"/>
<stop offset="1" stop-color="#B2E2F3"/>
</linearGradient>
<linearGradient id="paint3_linear_250_1100" x1="4.27839" y1="4.57143" x2="23.6782" y2="6.56856" gradientUnits="userSpaceOnUse">
<stop stop-color="white"/>
<stop offset="1" stop-color="#B2E2F3"/>
</linearGradient>
<linearGradient id="paint4_linear_250_1100" x1="4.27839" y1="4.57143" x2="23.6782" y2="6.56856" gradientUnits="userSpaceOnUse">
<stop stop-color="white"/>
<stop offset="1" stop-color="#B2E2F3"/>
</linearGradient>
<linearGradient id="paint5_linear_250_1100" x1="4.27839" y1="4.57143" x2="23.6782" y2="6.56856" gradientUnits="userSpaceOnUse">
<stop stop-color="white"/>
<stop offset="1" stop-color="#B2E2F3"/>
</linearGradient>
<linearGradient id="paint6_linear_250_1100" x1="4.27839" y1="4.57143" x2="23.6782" y2="6.56856" gradientUnits="userSpaceOnUse">
<stop stop-color="white"/>
<stop offset="1" stop-color="#B2E2F3"/>
</linearGradient>
<linearGradient id="paint7_linear_250_1100" x1="4.27839" y1="4.57143" x2="23.6782" y2="6.56856" gradientUnits="userSpaceOnUse">
<stop stop-color="white"/>
<stop offset="1" stop-color="#B2E2F3"/>
</linearGradient>
<linearGradient id="paint8_linear_250_1100" x1="4.27839" y1="4.57143" x2="23.6782" y2="6.56856" gradientUnits="userSpaceOnUse">
<stop stop-color="white"/>
<stop offset="1" stop-color="#B2E2F3"/>
</linearGradient>
<linearGradient id="paint9_linear_250_1100" x1="4.27839" y1="4.57143" x2="23.6782" y2="6.56856" gradientUnits="userSpaceOnUse">
<stop stop-color="white"/>
<stop offset="1" stop-color="#B2E2F3"/>
</linearGradient>
<linearGradient id="paint10_linear_250_1100" x1="4.27839" y1="4.57143" x2="23.6782" y2="6.56856" gradientUnits="userSpaceOnUse">
<stop stop-color="white"/>
<stop offset="1" stop-color="#B2E2F3"/>
</linearGradient>
<linearGradient id="paint11_linear_250_1100" x1="4.27839" y1="4.57143" x2="23.6782" y2="6.56856" gradientUnits="userSpaceOnUse">
<stop stop-color="white"/>
<stop offset="1" stop-color="#B2E2F3"/>
</linearGradient>
</defs>
</svg>
