<svg width="48" height="48" viewBox="0 0 48 48" fill="none" xmlns="http://www.w3.org/2000/svg">
<path d="M45 28.12C44.24 28.12 43.56 28.42 43.04 28.89L35.91 24.74C35.96 24.51 36 24.28 36 24.04C36 23.8 35.96 23.57 35.91 23.34L42.96 19.23C43.5 19.73 44.21 20.04 45 20.04C46.66 20.04 48 18.7 48 17.04C48 15.38 46.66 14.04 45 14.04C43.34 14.04 42 15.38 42 17.04C42 17.28 42.04 17.51 42.09 17.74L35.04 21.85C34.5 21.35 33.79 21.04 33 21.04C31.34 21.04 30 22.38 30 24.04C30 25.7 31.34 27.04 33 27.04C33.79 27.04 34.5 26.73 35.04 26.23L42.16 30.39C42.11 30.6 42.08 30.82 42.08 31.04C42.08 32.65 43.39 33.96 45 33.96C46.61 33.96 47.92 32.65 47.92 31.04C47.92 29.43 46.61 28.12 45 28.12Z" fill="white"/>
</svg>
