<svg width="209" height="213" viewBox="0 0 209 213" fill="none" xmlns="http://www.w3.org/2000/svg">
<path d="M124.895 7.44662C127.604 5.69043 128.757 1.70709 125.533 0.436545C122.314 -0.829096 120.159 0.696541 119.988 4.50327C121.739 6.2791 122.652 7.21606 124.895 7.44662Z" fill="url(#paint0_linear_312_827)"/>
<path d="M19.8744 17.2578C23.5746 17.8072 26.2885 12.0383 23.1869 10.0907C20.0903 8.14813 16.7679 10.8168 16.9299 14.3144C17.8819 15.5408 19.5358 16.2276 19.8744 17.2578Z" fill="url(#paint1_linear_312_827)"/>
<path d="M124.404 37.8612C121.852 33.0881 116.95 27.324 111.596 23.1935C106.247 19.063 102.919 16.7574 97.7909 14.599C92.6625 12.4356 87.9661 10.8217 81.5863 10.0907C75.2115 9.36471 66.0688 9.73753 60.484 11.1798C54.9042 12.622 50.0752 14.648 45.5162 17.1646C40.962 19.6861 35.4312 23.8558 30.5237 29.3746C25.6162 34.8983 22.7355 38.9601 20.5566 43.8706C18.3777 48.7762 16.7533 54.0791 16.3263 59.8235C15.9043 65.568 12.8813 77.3218 19.3837 78.087C22.1221 72.6664 19.4966 63.9737 21.0572 58.3421C22.6177 52.7104 23.7759 48.6241 25.9696 44.1257C28.1681 39.6273 30.8231 36.1247 35.4558 31.3613C40.0885 26.6029 44.3727 22.9777 48.814 20.677C53.2553 18.3763 58.3934 16.7721 63.6739 15.4869C68.9495 14.2065 76.0065 14.3782 81.3409 15.0993C86.6754 15.8254 91.4896 16.9046 96.0536 18.9355C100.618 20.9713 103.989 23.2868 108.74 27.0297C113.495 30.7727 117.661 35.8107 119.988 40.314C122.23 40.5201 123.595 39.5635 124.404 37.8612Z" fill="url(#paint2_linear_312_827)"/>
<path d="M186.73 14.3144C176.576 15.2318 170.103 29.8897 176.571 37.7141C183.034 45.5434 197.506 46.3185 202.242 35.7764C206.973 25.2343 198.576 13.245 186.73 14.3144Z" fill="url(#paint3_linear_312_827)"/>
<path d="M117.043 50.6158C114.727 40.4465 101.889 30.9934 93.4477 26.1516C85.0068 21.3098 68.3409 21.2362 58.2757 24.7143C48.2055 28.1923 37.4826 37.5129 32.5162 48.0403C27.5449 58.5677 25.788 70.4392 30.1802 82.502C22.1417 84.2975 16.503 85.4797 10.4275 91.7C4.35692 97.9252 1.90317 102.728 0.533975 111.077C-0.835218 119.421 0.479993 127.8 3.89071 133.633C7.30142 139.466 14.7216 146.476 20.7333 149.125C26.74 151.774 40.535 151.926 50.301 152.161C48.0681 136.257 49.6973 125.244 55.8219 114.02C61.9465 102.801 75.4372 93.3924 85.5123 89.2521C95.5874 85.1118 114.835 85.1118 125.018 89.6691C135.201 94.2215 147.867 102.728 153.457 113.775C159.046 124.823 162.359 136.562 159.248 152.161C174.304 151.901 184.894 152.745 193.747 145.441C202.596 138.136 208.362 130.493 208.494 119.632C208.632 108.776 206.296 99.3429 198.385 92.4359C190.479 85.5239 183.5 81.1579 171.516 82.502C173.067 68.1434 164.44 55.4036 153.236 48.8448C142.037 42.291 126.907 44.8958 117.043 50.6158ZM74.8385 40.314C69.6169 41.9133 64.6996 42.3695 60.9502 44.5868C57.196 46.809 52.7056 50.4343 50.7279 54.501C48.7502 58.5677 48.6471 63.0907 46.8657 68.2759C45.1186 68.1876 44.5543 67.6627 42.9397 66.8042C42.9397 61.776 44.6377 56.7134 45.948 53.5984C47.2583 50.4833 50.2028 46.0536 53.7853 43.3064C57.3678 40.5593 59.9344 39.1024 63.6739 37.9594C67.4085 36.8164 74.7501 34.4519 74.8385 40.314Z" fill="url(#paint4_linear_312_827)"/>
<path d="M203.415 66.3136C206.124 64.5574 207.277 60.5741 204.053 59.3036C200.834 58.0379 198.679 59.5636 198.508 63.3703C200.26 65.1461 201.172 66.0831 203.415 66.3136Z" fill="url(#paint5_linear_312_827)"/>
<path d="M104.774 212.5C113.485 199.613 129.798 188.423 140.226 176.812C150.655 165.195 154.728 157.258 155.322 141.86C155.915 126.461 150.586 116.105 140.476 105.681C130.372 95.2566 118.898 90.2283 103.901 90.4589C88.9083 90.6895 77.9302 95.9581 67.8453 105.926C57.7604 115.899 53.5252 128.752 53.908 143.969C54.2957 159.191 60.7392 166.392 70.5444 178.038C80.3496 189.689 97.2854 200.177 104.774 212.5ZM100.848 102.124C110.914 101.026 117.853 104.577 125.042 108.354C132.227 112.137 138.219 120.761 140.692 126.775C143.166 132.794 145.021 144.837 142.371 151.548C139.721 158.259 136.977 166.01 129.68 171.661C122.377 177.312 118.687 178.161 109.068 180.025C99.4496 181.894 91.7301 177.935 85.2571 174.933C78.7841 171.936 71.7762 162.841 69.1556 157.18C66.5399 151.519 64.8027 139.112 66.8883 131.926C68.974 124.739 72.8215 116.635 80.0895 111.298C87.3624 105.961 91.3473 103.159 100.848 102.124Z" fill="url(#paint6_linear_312_827)"/>
<path d="M101.339 107.03C91.789 108.467 81.7041 114.894 75.9476 122.851C70.1911 130.807 69.7298 142.988 72.5614 152.309C75.398 161.624 83.3825 169.655 92.1375 173.064C100.888 176.469 113.686 176.473 121.445 170.788C129.199 165.097 138.052 157.719 138.602 147.295C139.156 136.871 137.797 125.661 130.342 118.754C122.888 111.847 113.259 105.239 101.339 107.03ZM102.321 116.841C115.296 115.551 127.786 125.637 129.111 138.794C130.436 151.95 119.541 164.926 106.698 165.372C93.8551 165.823 81.9495 157.199 80.8257 144.19C79.7019 131.18 89.085 118.161 102.321 116.841Z" fill="url(#paint7_linear_312_827)"/>
<path d="M205.869 166.878C208.578 165.122 209.731 161.139 206.507 159.868C203.287 158.602 201.133 160.128 200.961 163.935C202.713 165.711 203.626 166.648 205.869 166.878Z" fill="url(#paint8_linear_312_827)"/>
<path d="M17.9115 168.84C5.72615 171.278 8.24861 189.9 20.9787 188.59C33.7038 187.285 30.7102 166.28 17.9115 168.84Z" fill="url(#paint9_linear_312_827)"/>
<path d="M164.155 198.764C166.864 197.008 168.017 193.025 164.793 191.754C161.574 190.489 159.419 192.014 159.248 195.821C161 197.597 161.912 198.534 164.155 198.764Z" fill="url(#paint10_linear_312_827)"/>
<path d="M58.153 196.802C53.6823 196.346 52.2689 203.69 57.0635 204.268C61.8582 204.847 62.8888 197.283 58.153 196.802Z" fill="url(#paint11_linear_312_827)"/>
<defs>
<linearGradient id="paint0_linear_312_827" x1="0" y1="0" x2="191.256" y2="189.741" gradientUnits="userSpaceOnUse">
<stop stop-color="#6C6C6C"/>
<stop offset="1" stop-color="#2B2B2B"/>
</linearGradient>
<linearGradient id="paint1_linear_312_827" x1="0" y1="0" x2="191.256" y2="189.741" gradientUnits="userSpaceOnUse">
<stop stop-color="#6C6C6C"/>
<stop offset="1" stop-color="#2B2B2B"/>
</linearGradient>
<linearGradient id="paint2_linear_312_827" x1="0" y1="0" x2="191.256" y2="189.741" gradientUnits="userSpaceOnUse">
<stop stop-color="#6C6C6C"/>
<stop offset="1" stop-color="#2B2B2B"/>
</linearGradient>
<linearGradient id="paint3_linear_312_827" x1="0" y1="0" x2="191.256" y2="189.741" gradientUnits="userSpaceOnUse">
<stop stop-color="#6C6C6C"/>
<stop offset="1" stop-color="#2B2B2B"/>
</linearGradient>
<linearGradient id="paint4_linear_312_827" x1="0" y1="0" x2="191.256" y2="189.741" gradientUnits="userSpaceOnUse">
<stop stop-color="#6C6C6C"/>
<stop offset="1" stop-color="#2B2B2B"/>
</linearGradient>
<linearGradient id="paint5_linear_312_827" x1="0" y1="0" x2="191.256" y2="189.741" gradientUnits="userSpaceOnUse">
<stop stop-color="#6C6C6C"/>
<stop offset="1" stop-color="#2B2B2B"/>
</linearGradient>
<linearGradient id="paint6_linear_312_827" x1="0" y1="0" x2="191.256" y2="189.741" gradientUnits="userSpaceOnUse">
<stop stop-color="#6C6C6C"/>
<stop offset="1" stop-color="#2B2B2B"/>
</linearGradient>
<linearGradient id="paint7_linear_312_827" x1="0" y1="0" x2="191.256" y2="189.741" gradientUnits="userSpaceOnUse">
<stop stop-color="#6C6C6C"/>
<stop offset="1" stop-color="#2B2B2B"/>
</linearGradient>
<linearGradient id="paint8_linear_312_827" x1="0" y1="0" x2="191.256" y2="189.741" gradientUnits="userSpaceOnUse">
<stop stop-color="#6C6C6C"/>
<stop offset="1" stop-color="#2B2B2B"/>
</linearGradient>
<linearGradient id="paint9_linear_312_827" x1="0" y1="0" x2="191.256" y2="189.741" gradientUnits="userSpaceOnUse">
<stop stop-color="#6C6C6C"/>
<stop offset="1" stop-color="#2B2B2B"/>
</linearGradient>
<linearGradient id="paint10_linear_312_827" x1="0" y1="0" x2="191.256" y2="189.741" gradientUnits="userSpaceOnUse">
<stop stop-color="#6C6C6C"/>
<stop offset="1" stop-color="#2B2B2B"/>
</linearGradient>
<linearGradient id="paint11_linear_312_827" x1="0" y1="0" x2="191.256" y2="189.741" gradientUnits="userSpaceOnUse">
<stop stop-color="#6C6C6C"/>
<stop offset="1" stop-color="#2B2B2B"/>
</linearGradient>
</defs>
</svg>
