<svg width="210" height="214" viewBox="0 0 210 214" fill="none" xmlns="http://www.w3.org/2000/svg">
<path d="M125.595 8.42492C128.298 6.67384 129.448 2.70211 126.232 1.43527C123.02 0.173321 120.871 1.69451 120.7 5.49015C122.448 7.26079 123.358 8.19503 125.595 8.42492Z" fill="url(#paint0_linear_363_675)"/>
<path d="M20.8267 18.2075C24.5181 18.7553 27.2254 13.0032 24.1313 11.0613C21.0421 9.12438 17.7277 11.7852 17.8893 15.2727C18.839 16.4955 20.4889 17.1803 20.8267 18.2075Z" fill="url(#paint1_linear_363_675)"/>
<path d="M125.106 38.7509C122.56 33.9917 117.669 28.2444 112.328 24.1259C106.992 20.0075 103.672 17.7086 98.5564 15.5564C93.4403 13.3994 88.7551 11.7901 82.3906 11.0613C76.0311 10.3374 66.9103 10.7091 61.339 12.1472C55.7725 13.5852 50.9551 15.6053 46.407 18.1145C41.8638 20.6287 36.3463 24.7863 31.4505 30.289C26.5548 35.7965 23.681 39.8465 21.5073 44.7427C19.3336 49.634 17.7131 54.9215 17.2872 60.6492C16.8661 66.3769 13.8504 78.0964 20.3372 78.8594C23.069 73.4545 20.4498 64.7872 22.0067 59.172C23.5635 53.5568 24.7189 49.4824 26.9073 44.9971C29.1006 40.5117 31.7492 37.0194 36.3707 32.2699C40.9923 27.5254 45.2663 23.9107 49.6969 21.6167C54.1276 19.3227 59.2534 17.7232 64.5212 16.4417C69.7841 15.1651 76.8242 15.3363 82.1459 16.0553C87.4675 16.7792 92.2702 17.8553 96.8233 19.8803C101.376 21.9102 104.74 24.2189 109.479 27.9509C114.223 31.683 118.379 36.7063 120.7 41.1965C122.937 41.402 124.298 40.4482 125.106 38.7509Z" fill="url(#paint2_linear_363_675)"/>
<path d="M187.282 15.2727C177.152 16.1874 170.695 30.8025 177.148 38.6041C183.595 46.4106 198.033 47.1835 202.757 36.6721C207.477 26.1607 199.1 14.2064 187.282 15.2727Z" fill="url(#paint3_linear_363_675)"/>
<path d="M117.762 51.4682C115.452 41.3286 102.644 31.9031 94.2236 27.0754C85.803 22.2477 69.1771 22.1743 59.1359 25.6422C49.0899 29.1102 38.3927 38.4036 33.4382 48.9003C28.4788 59.397 26.7261 71.2339 31.1078 83.2616C23.0886 85.0518 17.4634 86.2306 11.4025 92.4327C5.34647 98.6398 2.8986 103.428 1.53269 111.753C0.166785 120.073 1.47884 128.428 4.88138 134.243C8.28391 140.059 15.6863 147.049 21.6835 149.69C27.6759 152.331 41.4378 152.483 51.1803 152.718C48.9528 136.86 50.5782 125.879 56.688 114.688C62.7979 103.502 76.2563 94.1202 86.3072 89.992C96.3582 85.8637 115.559 85.8637 125.718 90.4077C135.877 94.9469 148.512 103.428 154.089 114.444C159.665 125.459 162.97 137.164 159.866 152.718C174.886 152.459 185.451 153.3 194.283 146.017C203.11 138.734 208.862 131.113 208.994 120.284C209.131 109.459 206.801 100.053 198.909 93.1664C191.022 86.2746 184.06 81.9214 172.105 83.2616C173.652 68.9448 165.045 56.2421 153.868 49.7025C142.696 43.1677 127.603 45.765 117.762 51.4682ZM75.659 41.1965C70.45 42.7911 65.5444 43.246 61.8041 45.4568C58.0588 47.6726 53.5792 51.2872 51.6063 55.3421C49.6333 59.397 49.5305 63.9068 47.7533 69.0768C46.0104 68.9888 45.4474 68.4654 43.8367 67.6095C43.8367 62.5959 45.5307 57.5481 46.8378 54.4421C48.145 51.3362 51.0824 46.9193 54.6563 44.1802C58.2302 41.4411 60.7907 39.9884 64.5212 38.8487C68.2469 37.709 75.5709 35.3514 75.659 41.1965Z" fill="url(#paint4_linear_363_675)"/>
<path d="M203.927 67.1203C206.63 65.3693 207.78 61.3975 204.564 60.1307C201.352 58.8687 199.203 60.3899 199.032 64.1856C200.779 65.9562 201.69 66.8905 203.927 67.1203Z" fill="url(#paint5_linear_363_675)"/>
<path d="M105.523 212.881C114.213 200.031 130.486 188.874 140.89 177.297C151.293 165.714 155.357 157.8 155.949 142.446C156.541 127.092 151.225 116.767 141.139 106.373C131.059 95.9789 119.613 90.9653 104.652 91.1952C89.6951 91.4251 78.7433 96.6784 68.6826 106.617C58.6219 116.561 54.3969 129.377 54.7787 144.549C55.1655 159.727 61.5936 166.907 71.3753 178.519C81.1569 190.136 98.0521 200.594 105.523 212.881ZM101.606 102.827C111.648 101.731 118.57 105.272 125.742 109.039C132.91 112.81 138.887 121.409 141.355 127.405C143.822 133.407 145.673 145.415 143.029 152.106C140.386 158.798 137.649 166.526 130.369 172.161C123.084 177.795 119.402 178.642 109.807 180.5C100.211 182.364 92.5101 178.417 86.0527 175.423C79.5952 172.435 72.6041 163.366 69.9898 157.722C67.3803 152.077 65.6473 139.707 67.7279 132.541C69.8086 125.376 73.6469 117.295 80.8975 111.973C88.1529 106.652 92.1283 103.859 101.606 102.827Z" fill="url(#paint6_linear_363_675)"/>
<path d="M102.096 107.718C92.5689 109.151 82.5082 115.559 76.7655 123.492C71.0228 131.426 70.5626 143.571 73.3874 152.865C76.2172 162.153 84.1825 170.16 92.9165 173.56C101.646 176.954 114.414 176.959 122.154 171.29C129.889 165.616 138.721 158.26 139.269 147.866C139.823 137.472 138.466 126.295 131.03 119.408C123.593 112.521 113.988 105.933 102.096 107.718ZM103.075 117.501C116.019 116.214 128.479 126.271 129.801 139.389C131.123 152.508 120.254 165.445 107.442 165.89C94.63 166.34 82.753 157.741 81.6318 144.769C80.5107 131.798 89.8714 118.816 103.075 117.501Z" fill="url(#paint7_linear_363_675)"/>
<path d="M206.375 167.392C209.078 165.641 210.228 161.669 207.012 160.402C203.8 159.14 201.651 160.661 201.479 164.457C203.227 166.228 204.138 167.162 206.375 167.392Z" fill="url(#paint8_linear_363_675)"/>
<path d="M18.8685 169.348C6.71242 171.779 9.22882 190.346 21.9284 189.04C34.623 187.739 31.6366 166.795 18.8685 169.348Z" fill="url(#paint9_linear_363_675)"/>
<path d="M164.761 199.185C167.464 197.434 168.614 193.462 165.398 192.195C162.186 190.933 160.037 192.455 159.866 196.25C161.613 198.021 162.524 198.955 164.761 199.185Z" fill="url(#paint10_linear_363_675)"/>
<path d="M59.0136 197.228C54.5535 196.774 53.1436 204.096 57.9267 204.673C62.7098 205.25 63.7379 197.708 59.0136 197.228Z" fill="url(#paint11_linear_363_675)"/>
<path d="M125.595 8.42492C128.298 6.67384 129.448 2.70211 126.232 1.43527C123.02 0.173321 120.871 1.69451 120.7 5.49015C122.448 7.26079 123.358 8.19503 125.595 8.42492Z" stroke="url(#paint12_linear_363_675)" stroke-opacity="0.6"/>
<path d="M20.8267 18.2075C24.5181 18.7553 27.2254 13.0032 24.1313 11.0613C21.0421 9.12438 17.7277 11.7852 17.8893 15.2727C18.839 16.4955 20.4889 17.1803 20.8267 18.2075Z" stroke="url(#paint13_linear_363_675)" stroke-opacity="0.6"/>
<path d="M125.106 38.7509C122.56 33.9917 117.669 28.2444 112.328 24.1259C106.992 20.0075 103.672 17.7086 98.5564 15.5564C93.4403 13.3994 88.7551 11.7901 82.3906 11.0613C76.0311 10.3374 66.9103 10.7091 61.339 12.1472C55.7725 13.5852 50.9551 15.6053 46.407 18.1145C41.8638 20.6287 36.3463 24.7863 31.4505 30.289C26.5548 35.7965 23.681 39.8465 21.5073 44.7427C19.3336 49.634 17.7131 54.9215 17.2872 60.6492C16.8661 66.3769 13.8504 78.0964 20.3372 78.8594C23.069 73.4545 20.4498 64.7872 22.0067 59.172C23.5635 53.5568 24.7189 49.4824 26.9073 44.9971C29.1006 40.5117 31.7492 37.0194 36.3707 32.2699C40.9923 27.5254 45.2663 23.9107 49.6969 21.6167C54.1276 19.3227 59.2534 17.7232 64.5212 16.4417C69.7841 15.1651 76.8242 15.3363 82.1459 16.0553C87.4675 16.7792 92.2702 17.8553 96.8233 19.8803C101.376 21.9102 104.74 24.2189 109.479 27.9509C114.223 31.683 118.379 36.7063 120.7 41.1965C122.937 41.402 124.298 40.4482 125.106 38.7509Z" stroke="url(#paint14_linear_363_675)" stroke-opacity="0.6"/>
<path d="M187.282 15.2727C177.152 16.1874 170.695 30.8025 177.148 38.6041C183.595 46.4106 198.033 47.1835 202.757 36.6721C207.477 26.1607 199.1 14.2064 187.282 15.2727Z" stroke="url(#paint15_linear_363_675)" stroke-opacity="0.6"/>
<path d="M117.762 51.4682C115.452 41.3286 102.644 31.9031 94.2236 27.0754C85.803 22.2477 69.1771 22.1743 59.1359 25.6422C49.0899 29.1102 38.3927 38.4036 33.4382 48.9003C28.4788 59.397 26.7261 71.2339 31.1078 83.2616C23.0886 85.0518 17.4634 86.2306 11.4025 92.4327C5.34647 98.6398 2.8986 103.428 1.53269 111.753C0.166785 120.073 1.47884 128.428 4.88138 134.243C8.28391 140.059 15.6863 147.049 21.6835 149.69C27.6759 152.331 41.4378 152.483 51.1803 152.718C48.9528 136.86 50.5782 125.879 56.688 114.688C62.7979 103.502 76.2563 94.1202 86.3072 89.992C96.3582 85.8637 115.559 85.8637 125.718 90.4077C135.877 94.9469 148.512 103.428 154.089 114.444C159.665 125.459 162.97 137.164 159.866 152.718C174.886 152.459 185.451 153.3 194.283 146.017C203.11 138.734 208.862 131.113 208.994 120.284C209.131 109.459 206.801 100.053 198.909 93.1664C191.022 86.2746 184.06 81.9214 172.105 83.2616C173.652 68.9448 165.045 56.2421 153.868 49.7025C142.696 43.1677 127.603 45.765 117.762 51.4682ZM75.659 41.1965C70.45 42.7911 65.5444 43.246 61.8041 45.4568C58.0588 47.6726 53.5792 51.2872 51.6063 55.3421C49.6333 59.397 49.5305 63.9068 47.7533 69.0768C46.0104 68.9888 45.4474 68.4654 43.8367 67.6095C43.8367 62.5959 45.5307 57.5481 46.8378 54.4421C48.145 51.3362 51.0824 46.9193 54.6563 44.1802C58.2302 41.4411 60.7907 39.9884 64.5212 38.8487C68.2469 37.709 75.5709 35.3514 75.659 41.1965Z" stroke="url(#paint16_linear_363_675)" stroke-opacity="0.6"/>
<path d="M203.927 67.1203C206.63 65.3693 207.78 61.3975 204.564 60.1307C201.352 58.8687 199.203 60.3899 199.032 64.1856C200.779 65.9562 201.69 66.8905 203.927 67.1203Z" stroke="url(#paint17_linear_363_675)" stroke-opacity="0.6"/>
<path d="M105.523 212.881C114.213 200.031 130.486 188.874 140.89 177.297C151.293 165.714 155.357 157.8 155.949 142.446C156.541 127.092 151.225 116.767 141.139 106.373C131.059 95.9789 119.613 90.9653 104.652 91.1952C89.6951 91.4251 78.7433 96.6784 68.6826 106.617C58.6219 116.561 54.3969 129.377 54.7787 144.549C55.1655 159.727 61.5936 166.907 71.3753 178.519C81.1569 190.136 98.0521 200.594 105.523 212.881ZM101.606 102.827C111.648 101.731 118.57 105.272 125.742 109.039C132.91 112.81 138.887 121.409 141.355 127.405C143.822 133.407 145.673 145.415 143.029 152.106C140.386 158.798 137.649 166.526 130.369 172.161C123.084 177.795 119.402 178.642 109.807 180.5C100.211 182.364 92.5101 178.417 86.0527 175.423C79.5952 172.435 72.6041 163.366 69.9898 157.722C67.3803 152.077 65.6473 139.707 67.7279 132.541C69.8086 125.376 73.6469 117.295 80.8975 111.973C88.1529 106.652 92.1283 103.859 101.606 102.827Z" stroke="url(#paint18_linear_363_675)" stroke-opacity="0.6"/>
<path d="M102.096 107.718C92.5689 109.151 82.5082 115.559 76.7655 123.492C71.0228 131.426 70.5626 143.571 73.3874 152.865C76.2172 162.153 84.1825 170.16 92.9165 173.56C101.646 176.954 114.414 176.959 122.154 171.29C129.889 165.616 138.721 158.26 139.269 147.866C139.823 137.472 138.466 126.295 131.03 119.408C123.593 112.521 113.988 105.933 102.096 107.718ZM103.075 117.501C116.019 116.214 128.479 126.271 129.801 139.389C131.123 152.508 120.254 165.445 107.442 165.89C94.63 166.34 82.753 157.741 81.6318 144.769C80.5107 131.798 89.8714 118.816 103.075 117.501Z" stroke="url(#paint19_linear_363_675)" stroke-opacity="0.6"/>
<path d="M206.375 167.392C209.078 165.641 210.228 161.669 207.012 160.402C203.8 159.14 201.651 160.661 201.479 164.457C203.227 166.228 204.138 167.162 206.375 167.392Z" stroke="url(#paint20_linear_363_675)" stroke-opacity="0.6"/>
<path d="M18.8685 169.348C6.71242 171.779 9.22882 190.346 21.9284 189.04C34.623 187.739 31.6366 166.795 18.8685 169.348Z" stroke="url(#paint21_linear_363_675)" stroke-opacity="0.6"/>
<path d="M164.761 199.185C167.464 197.434 168.614 193.462 165.398 192.195C162.186 190.933 160.037 192.455 159.866 196.25C161.613 198.021 162.524 198.955 164.761 199.185Z" stroke="url(#paint22_linear_363_675)" stroke-opacity="0.6"/>
<path d="M59.0136 197.228C54.5535 196.774 53.1436 204.096 57.9267 204.673C62.7098 205.25 63.7379 197.708 59.0136 197.228Z" stroke="url(#paint23_linear_363_675)" stroke-opacity="0.6"/>
<defs>
<linearGradient id="paint0_linear_363_675" x1="29.3284" y1="31.2687" x2="157.78" y2="44.4922" gradientUnits="userSpaceOnUse">
<stop stop-color="white"/>
<stop offset="1" stop-color="#B2E2F3"/>
</linearGradient>
<linearGradient id="paint1_linear_363_675" x1="29.3284" y1="31.2687" x2="157.78" y2="44.4922" gradientUnits="userSpaceOnUse">
<stop stop-color="white"/>
<stop offset="1" stop-color="#B2E2F3"/>
</linearGradient>
<linearGradient id="paint2_linear_363_675" x1="29.3284" y1="31.2687" x2="157.78" y2="44.4922" gradientUnits="userSpaceOnUse">
<stop stop-color="white"/>
<stop offset="1" stop-color="#B2E2F3"/>
</linearGradient>
<linearGradient id="paint3_linear_363_675" x1="29.3284" y1="31.2687" x2="157.78" y2="44.4922" gradientUnits="userSpaceOnUse">
<stop stop-color="white"/>
<stop offset="1" stop-color="#B2E2F3"/>
</linearGradient>
<linearGradient id="paint4_linear_363_675" x1="29.3284" y1="31.2687" x2="157.78" y2="44.4922" gradientUnits="userSpaceOnUse">
<stop stop-color="white"/>
<stop offset="1" stop-color="#B2E2F3"/>
</linearGradient>
<linearGradient id="paint5_linear_363_675" x1="29.3284" y1="31.2687" x2="157.78" y2="44.4922" gradientUnits="userSpaceOnUse">
<stop stop-color="white"/>
<stop offset="1" stop-color="#B2E2F3"/>
</linearGradient>
<linearGradient id="paint6_linear_363_675" x1="29.3284" y1="31.2687" x2="157.78" y2="44.4922" gradientUnits="userSpaceOnUse">
<stop stop-color="white"/>
<stop offset="1" stop-color="#B2E2F3"/>
</linearGradient>
<linearGradient id="paint7_linear_363_675" x1="29.3284" y1="31.2687" x2="157.78" y2="44.4922" gradientUnits="userSpaceOnUse">
<stop stop-color="white"/>
<stop offset="1" stop-color="#B2E2F3"/>
</linearGradient>
<linearGradient id="paint8_linear_363_675" x1="29.3284" y1="31.2687" x2="157.78" y2="44.4922" gradientUnits="userSpaceOnUse">
<stop stop-color="white"/>
<stop offset="1" stop-color="#B2E2F3"/>
</linearGradient>
<linearGradient id="paint9_linear_363_675" x1="29.3284" y1="31.2687" x2="157.78" y2="44.4922" gradientUnits="userSpaceOnUse">
<stop stop-color="white"/>
<stop offset="1" stop-color="#B2E2F3"/>
</linearGradient>
<linearGradient id="paint10_linear_363_675" x1="29.3284" y1="31.2687" x2="157.78" y2="44.4922" gradientUnits="userSpaceOnUse">
<stop stop-color="white"/>
<stop offset="1" stop-color="#B2E2F3"/>
</linearGradient>
<linearGradient id="paint11_linear_363_675" x1="29.3284" y1="31.2687" x2="157.78" y2="44.4922" gradientUnits="userSpaceOnUse">
<stop stop-color="white"/>
<stop offset="1" stop-color="#B2E2F3"/>
</linearGradient>
<linearGradient id="paint12_linear_363_675" x1="16.1784" y1="1.00001" x2="209.536" y2="22.0933" gradientUnits="userSpaceOnUse">
<stop stop-color="#E6B3E3"/>
<stop offset="1" stop-color="#B6C3EE"/>
</linearGradient>
<linearGradient id="paint13_linear_363_675" x1="16.1784" y1="1.00001" x2="209.536" y2="22.0933" gradientUnits="userSpaceOnUse">
<stop stop-color="#E6B3E3"/>
<stop offset="1" stop-color="#B6C3EE"/>
</linearGradient>
<linearGradient id="paint14_linear_363_675" x1="16.1784" y1="1.00001" x2="209.536" y2="22.0933" gradientUnits="userSpaceOnUse">
<stop stop-color="#E6B3E3"/>
<stop offset="1" stop-color="#B6C3EE"/>
</linearGradient>
<linearGradient id="paint15_linear_363_675" x1="16.1784" y1="1.00001" x2="209.536" y2="22.0933" gradientUnits="userSpaceOnUse">
<stop stop-color="#E6B3E3"/>
<stop offset="1" stop-color="#B6C3EE"/>
</linearGradient>
<linearGradient id="paint16_linear_363_675" x1="16.1784" y1="1.00001" x2="209.536" y2="22.0933" gradientUnits="userSpaceOnUse">
<stop stop-color="#E6B3E3"/>
<stop offset="1" stop-color="#B6C3EE"/>
</linearGradient>
<linearGradient id="paint17_linear_363_675" x1="16.1784" y1="1.00001" x2="209.536" y2="22.0933" gradientUnits="userSpaceOnUse">
<stop stop-color="#E6B3E3"/>
<stop offset="1" stop-color="#B6C3EE"/>
</linearGradient>
<linearGradient id="paint18_linear_363_675" x1="16.1784" y1="1.00001" x2="209.536" y2="22.0933" gradientUnits="userSpaceOnUse">
<stop stop-color="#E6B3E3"/>
<stop offset="1" stop-color="#B6C3EE"/>
</linearGradient>
<linearGradient id="paint19_linear_363_675" x1="16.1784" y1="1.00001" x2="209.536" y2="22.0933" gradientUnits="userSpaceOnUse">
<stop stop-color="#E6B3E3"/>
<stop offset="1" stop-color="#B6C3EE"/>
</linearGradient>
<linearGradient id="paint20_linear_363_675" x1="16.1784" y1="1.00001" x2="209.536" y2="22.0933" gradientUnits="userSpaceOnUse">
<stop stop-color="#E6B3E3"/>
<stop offset="1" stop-color="#B6C3EE"/>
</linearGradient>
<linearGradient id="paint21_linear_363_675" x1="16.1784" y1="1.00001" x2="209.536" y2="22.0933" gradientUnits="userSpaceOnUse">
<stop stop-color="#E6B3E3"/>
<stop offset="1" stop-color="#B6C3EE"/>
</linearGradient>
<linearGradient id="paint22_linear_363_675" x1="16.1784" y1="1.00001" x2="209.536" y2="22.0933" gradientUnits="userSpaceOnUse">
<stop stop-color="#E6B3E3"/>
<stop offset="1" stop-color="#B6C3EE"/>
</linearGradient>
<linearGradient id="paint23_linear_363_675" x1="16.1784" y1="1.00001" x2="209.536" y2="22.0933" gradientUnits="userSpaceOnUse">
<stop stop-color="#E6B3E3"/>
<stop offset="1" stop-color="#B6C3EE"/>
</linearGradient>
</defs>
</svg>
