<svg width="40" height="40" viewBox="0 0 40 40" fill="none" xmlns="http://www.w3.org/2000/svg">
<mask id="mask0_411_837" style="mask-type:alpha" maskUnits="userSpaceOnUse" x="0" y="0" width="40" height="40">
<rect width="40" height="40" fill="#D9D9D9"/>
</mask>
<g mask="url(#mask0_411_837)">
<circle cx="24" cy="19" r="6" fill="#F9E8AF"/>
<path d="M25.2421 26.1739H13.6C11.0526 26.1739 9 23.9565 9 21.2011C9 18.4678 11.0526 16.2284 13.6 16.2284C14.1579 16.2284 14.6842 16.3272 15.1684 16.5248C15.4316 16.6236 15.7053 16.5248 15.8526 16.2833C16.621 14.9221 18.021 14 19.621 14C21.7473 14 23.5052 15.6027 23.9368 17.7433C24 18.0397 24.2315 18.1934 24.5158 18.1275C24.7473 18.0726 24.9894 18.0507 25.2421 18.0507C27.3263 18.0507 29 19.8729 29 22.1232C29.0105 24.3626 27.3263 26.1739 25.2421 26.1739Z" fill="#B2E2F3"/>
</g>
</svg>
