<svg width="40" height="40" viewBox="0 0 40 40" fill="none" xmlns="http://www.w3.org/2000/svg">
<mask id="mask0_411_847" style="mask-type:alpha" maskUnits="userSpaceOnUse" x="0" y="0" width="40" height="40">
<rect width="40" height="40" fill="#D9D9D9"/>
</mask>
<g mask="url(#mask0_411_847)">
<path d="M26.2421 26.1739H14.6C12.0526 26.1739 10 23.9565 10 21.2011C10 18.4678 12.0526 16.2284 14.6 16.2284C15.1579 16.2284 15.6842 16.3272 16.1684 16.5248C16.4316 16.6236 16.7053 16.5248 16.8526 16.2833C17.621 14.9221 19.021 14 20.621 14C22.7473 14 24.5052 15.6027 24.9368 17.7433C25 18.0397 25.2315 18.1934 25.5158 18.1275C25.7473 18.0726 25.9894 18.0507 26.2421 18.0507C28.3263 18.0507 30 19.8729 30 22.1232C30.0105 24.3626 28.3263 26.1739 26.2421 26.1739Z" fill="#B2E2F3"/>
</g>
</svg>
