<svg width="40" height="40" viewBox="0 0 40 40" fill="none" xmlns="http://www.w3.org/2000/svg">
<mask id="mask0_411_851" style="mask-type:alpha" maskUnits="userSpaceOnUse" x="0" y="0" width="40" height="40">
<rect width="40" height="40" fill="#D9D9D9"/>
</mask>
<g mask="url(#mask0_411_851)">
<path d="M28.5876 22.4722H19.565C17.5908 22.4722 16 20.7469 16 18.603C16 16.4763 17.5908 14.7339 19.565 14.7339C19.9974 14.7339 20.4052 14.8107 20.7805 14.9645C20.9845 15.0414 21.1966 14.9645 21.3108 14.7766C21.9063 13.7175 22.9913 13 24.2313 13C25.8792 13 27.2416 14.247 27.576 15.9126C27.625 16.1432 27.8044 16.2628 28.0247 16.2115C28.2042 16.1688 28.3918 16.1517 28.5876 16.1517C30.2029 16.1517 31.5 17.5695 31.5 19.3205C31.5081 21.0629 30.2029 22.4722 28.5876 22.4722Z" fill="#436981"/>
<path d="M25.2421 26.1739H13.6C11.0526 26.1739 9 23.9565 9 21.2011C9 18.4678 11.0526 16.2284 13.6 16.2284C14.1579 16.2284 14.6842 16.3272 15.1684 16.5248C15.4316 16.6236 15.7053 16.5248 15.8526 16.2833C16.621 14.9221 18.021 14 19.621 14C21.7473 14 23.5052 15.6027 23.9368 17.7433C24 18.0397 24.2315 18.1934 24.5158 18.1275C24.7473 18.0726 24.9894 18.0507 25.2421 18.0507C27.3263 18.0507 29 19.8729 29 22.1232C29.0105 24.3626 27.3263 26.1739 25.2421 26.1739Z" fill="#B2E2F3"/>
</g>
</svg>
