<svg width="40" height="40" viewBox="0 0 40 40" fill="none" xmlns="http://www.w3.org/2000/svg">
<mask id="mask0_411_856" style="mask-type:alpha" maskUnits="userSpaceOnUse" x="0" y="0" width="40" height="40">
<rect width="40" height="40" fill="#D9D9D9"/>
</mask>
<g mask="url(#mask0_411_856)">
<path d="M28.5876 21.4722H19.565C17.5908 21.4722 16 19.7469 16 17.603C16 15.4763 17.5908 13.7339 19.565 13.7339C19.9974 13.7339 20.4052 13.8107 20.7805 13.9645C20.9845 14.0414 21.1966 13.9645 21.3108 13.7766C21.9063 12.7175 22.9913 12 24.2313 12C25.8792 12 27.2416 13.247 27.576 14.9126C27.625 15.1432 27.8044 15.2628 28.0247 15.2115C28.2042 15.1688 28.3918 15.1517 28.5876 15.1517C30.2029 15.1517 31.5 16.5695 31.5 18.3205C31.5081 20.0629 30.2029 21.4722 28.5876 21.4722Z" fill="#436981"/>
<path d="M25.2421 25.1739H13.6C11.0526 25.1739 9 22.9565 9 20.2011C9 17.4678 11.0526 15.2284 13.6 15.2284C14.1579 15.2284 14.6842 15.3272 15.1684 15.5248C15.4316 15.6236 15.7053 15.5248 15.8526 15.2833C16.621 13.9221 18.021 13 19.621 13C21.7473 13 23.5052 14.6027 23.9368 16.7433C24 17.0397 24.2315 17.1934 24.5158 17.1275C24.7473 17.0726 24.9894 17.0507 25.2421 17.0507C27.3263 17.0507 29 18.8729 29 21.1232C29.0105 23.3626 27.3263 25.1739 25.2421 25.1739Z" fill="#B2E2F3"/>
<path fill-rule="evenodd" clip-rule="evenodd" d="M15.3289 26.3458C15.5681 26.4838 15.6501 26.7896 15.5121 27.0288L13.9332 29.7656C13.7952 30.0048 13.4894 30.0868 13.2502 29.9488C13.011 29.8108 12.929 29.5051 13.067 29.2659L14.6459 26.529C14.7839 26.2898 15.0897 26.2078 15.3289 26.3458ZM19.5394 26.3458C19.7786 26.4838 19.8606 26.7896 19.7226 27.0288L18.1437 29.7656C18.0057 30.0048 17.6999 30.0868 17.4607 29.9488C17.2215 29.8108 17.1395 29.5051 17.2775 29.2659L18.8564 26.529C18.9944 26.2898 19.3002 26.2078 19.5394 26.3458ZM23.7499 26.3458C23.9891 26.4838 24.0711 26.7896 23.9331 27.0288L22.3542 29.7656C22.2162 30.0048 21.9104 30.0868 21.6712 29.9488C21.4321 29.8108 21.35 29.5051 21.488 29.2659L23.067 26.529C23.205 26.2898 23.5107 26.2078 23.7499 26.3458Z" fill="#B2E2F3"/>
</g>
</svg>
