<svg width="40" height="40" viewBox="0 0 40 40" fill="none" xmlns="http://www.w3.org/2000/svg">
<mask id="mask0_411_869" style="mask-type:alpha" maskUnits="userSpaceOnUse" x="0" y="0" width="40" height="40">
<rect width="40" height="40" fill="#D9D9D9"/>
</mask>
<g mask="url(#mask0_411_869)">
<circle cx="24" cy="18" r="6" fill="#436981"/>
<path d="M25.2421 25.1739H13.6C11.0526 25.1739 9 22.9565 9 20.2011C9 17.4678 11.0526 15.2284 13.6 15.2284C14.1579 15.2284 14.6842 15.3272 15.1684 15.5248C15.4316 15.6236 15.7053 15.5248 15.8526 15.2833C16.621 13.9221 18.021 13 19.621 13C21.7473 13 23.5052 14.6027 23.9368 16.7433C24 17.0397 24.2315 17.1934 24.5158 17.1275C24.7473 17.0726 24.9894 17.0507 25.2421 17.0507C27.3263 17.0507 29 18.8729 29 21.1232C29.0105 23.3626 27.3263 25.1739 25.2421 25.1739Z" fill="#B2E2F3"/>
<path fill-rule="evenodd" clip-rule="evenodd" d="M15.3289 26.067C15.5681 26.205 15.6501 26.5108 15.5121 26.7499L13.9332 29.4868C13.7952 29.726 13.4894 29.808 13.2502 29.67C13.011 29.532 12.929 29.2262 13.067 28.9871L14.6459 26.2502C14.7839 26.011 15.0897 25.929 15.3289 26.067ZM19.5394 26.067C19.7786 26.205 19.8606 26.5108 19.7226 26.7499L18.1437 29.4868C18.0057 29.726 17.6999 29.808 17.4607 29.67C17.2215 29.532 17.1395 29.2262 17.2775 28.9871L18.8564 26.2502C18.9944 26.011 19.3002 25.929 19.5394 26.067ZM23.7499 26.067C23.9891 26.205 24.0711 26.5108 23.9331 26.7499L22.3542 29.4868C22.2162 29.726 21.9104 29.808 21.6712 29.67C21.4321 29.532 21.35 29.2262 21.488 28.9871L23.067 26.2502C23.205 26.011 23.5107 25.929 23.7499 26.067Z" fill="#B2E2F3"/>
</g>
</svg>
