<svg width="40" height="40" viewBox="0 0 40 40" fill="none" xmlns="http://www.w3.org/2000/svg">
<mask id="mask0_411_881" style="mask-type:alpha" maskUnits="userSpaceOnUse" x="0" y="0" width="40" height="40">
<rect width="40" height="40" fill="#D9D9D9"/>
</mask>
<g mask="url(#mask0_411_881)">
<path fill-rule="evenodd" clip-rule="evenodd" d="M24.8028 17.8715L22.1035 19.4161C22.1511 19.6028 22.1765 19.7985 22.1765 20C22.1765 20.2002 22.1515 20.3945 22.1044 20.5801L24.7825 22.1129L27.6159 21.3945C27.9535 21.3052 28.2979 21.5038 28.3879 21.8362C28.4779 22.1709 28.2776 22.5123 27.9423 22.6015L26.3669 23.0187L28.3339 24.1455C28.6332 24.3173 28.7367 24.6966 28.5612 24.9978C28.3879 25.2967 27.9985 25.3994 27.7037 25.2298L25.7547 24.1142L26.1756 25.676C26.2656 26.0085 26.0676 26.3521 25.73 26.4413C25.3946 26.5306 25.0481 26.3342 24.958 25.9996L24.1681 23.2084L21.4806 21.6705C21.1986 21.9502 20.8463 22.159 20.4524 22.268V25.3101L22.4959 27.3851C22.7435 27.6305 22.7412 28.0254 22.4959 28.2686C22.2484 28.5141 21.85 28.5118 21.6047 28.2686L20.4524 27.1263V29.3797C20.4524 29.7211 20.1734 30 19.8223 30C19.4734 30 19.1921 29.7166 19.1921 29.3797V27.1508L18.0398 28.2932C17.7945 28.5364 17.3962 28.5386 17.1486 28.2932C16.9033 28.05 16.901 27.6551 17.1486 27.4096L19.1921 25.3347V22.2673C18.7989 22.158 18.4472 21.9492 18.1657 21.6697L15.517 23.1861L14.7608 25.9594C14.6707 26.2941 14.3242 26.4904 13.9888 26.4012C13.6512 26.3119 13.4532 25.9683 13.5432 25.6359L13.9641 24.0741L11.9431 25.232C11.6437 25.4016 11.2612 25.3012 11.0856 25C10.9123 24.701 11.0181 24.3173 11.3129 24.1477L13.3137 23.0009L11.7383 22.5837C11.4029 22.4944 11.2026 22.1531 11.2927 21.8184C11.3827 21.4859 11.727 21.2874 12.0646 21.3766L14.8643 22.1151L17.5431 20.5819C17.4957 20.3958 17.4706 20.2008 17.4706 20C17.4706 19.7991 17.4958 19.6041 17.5431 19.418L14.8845 17.896L12.0849 18.6345C11.7473 18.7238 11.4029 18.5252 11.3129 18.1928C11.2229 17.8581 11.4232 17.5167 11.7585 17.4275L13.3339 17.0103L11.3129 15.8523C11.0136 15.6805 10.9101 15.3012 11.0856 15C11.2589 14.701 11.6482 14.5984 11.9431 14.768L13.9438 15.9148L13.523 14.353C13.4329 14.0205 13.631 13.6769 13.9686 13.5877C14.3039 13.4984 14.6505 13.6948 14.7405 14.0295L15.4944 16.8028L18.1648 18.3312C18.4459 18.0518 18.7972 17.8429 19.1899 17.7334V14.71L17.1464 12.6751C16.8988 12.4297 16.901 12.0348 17.1464 11.7916C17.3939 11.5462 17.7923 11.5484 18.0376 11.7916L19.1899 12.934V10.6203C19.1899 10.2789 19.4689 10 19.82 10C20.1689 10 20.4502 10.2834 20.4502 10.6203V12.9116L21.6025 11.7671C21.8478 11.5239 22.2461 11.5216 22.4937 11.7671C22.739 12.0103 22.7412 12.4052 22.4937 12.6506L20.4502 14.6854V17.7314C20.844 17.84 21.1964 18.0483 21.4786 18.3275L24.1523 16.7983L24.9423 14.0071C25.0323 13.6725 25.3789 13.4761 25.7142 13.5654C26.0518 13.6546 26.2499 13.9982 26.1598 14.3307L25.739 15.8925L27.706 14.7657C28.0053 14.5962 28.3879 14.6966 28.5634 14.9978C28.7367 15.2967 28.6309 15.6805 28.3361 15.8501L26.3871 16.9656L27.9625 17.3829C28.2979 17.4721 28.4982 17.8135 28.4081 18.1481C28.3181 18.4806 27.9738 18.6792 27.6362 18.5899L24.8028 17.8715ZM19.8235 21.1765C20.4733 21.1765 21 20.6497 21 20C21 19.3503 20.4733 18.8235 19.8235 18.8235C19.1738 18.8235 18.6471 19.3503 18.6471 20C18.6471 20.6497 19.1738 21.1765 19.8235 21.1765Z" fill="#B2E2F3"/>
</g>
</svg>
