<svg width="40" height="40" viewBox="0 0 40 40" fill="none" xmlns="http://www.w3.org/2000/svg">
<mask id="mask0_411_884" style="mask-type:alpha" maskUnits="userSpaceOnUse" x="0" y="0" width="40" height="40">
<rect width="40" height="40" fill="#D9D9D9"/>
</mask>
<g mask="url(#mask0_411_884)">
<path fill-rule="evenodd" clip-rule="evenodd" d="M22.7273 13.4545C22.7273 13.7056 22.5238 13.9091 22.2727 13.9091H15.9091C15.6581 13.9091 15.4545 13.7056 15.4545 13.4545C15.4545 13.2035 15.6581 13 15.9091 13H22.2727C22.5238 13 22.7273 13.2035 22.7273 13.4545Z" fill="#B2E2F3"/>
<path fill-rule="evenodd" clip-rule="evenodd" d="M23.6364 16.1818C23.6364 16.4329 23.4329 16.6364 23.1818 16.6364H11.3636C11.1126 16.6364 10.9091 16.4329 10.9091 16.1818C10.9091 15.9308 11.1126 15.7273 11.3636 15.7273H23.1818C23.4329 15.7273 23.6364 15.9308 23.6364 16.1818Z" fill="#B2E2F3"/>
<path fill-rule="evenodd" clip-rule="evenodd" d="M30 18.9091C30 19.1601 29.7965 19.3636 29.5455 19.3636H15.9091C15.6581 19.3636 15.4545 19.1601 15.4545 18.9091C15.4545 18.6581 15.6581 18.4545 15.9091 18.4545H29.5455C29.7965 18.4545 30 18.6581 30 18.9091Z" fill="#B2E2F3"/>
<path fill-rule="evenodd" clip-rule="evenodd" d="M24.5455 21.6364C24.5455 21.8874 24.3419 22.0909 24.0909 22.0909H10.4545C10.2035 22.0909 10 21.8874 10 21.6364C10 21.3853 10.2035 21.1818 10.4545 21.1818H24.0909C24.3419 21.1818 24.5455 21.3853 24.5455 21.6364Z" fill="#B2E2F3"/>
<path fill-rule="evenodd" clip-rule="evenodd" d="M28.1818 24.3636C28.1818 24.6147 27.9783 24.8182 27.7273 24.8182H13.1818C12.9308 24.8182 12.7273 24.6147 12.7273 24.3636C12.7273 24.1126 12.9308 23.9091 13.1818 23.9091H27.7273C27.9783 23.9091 28.1818 24.1126 28.1818 24.3636Z" fill="#B2E2F3"/>
<path fill-rule="evenodd" clip-rule="evenodd" d="M24.5455 27.0909C24.5455 27.3419 24.3419 27.5455 24.0909 27.5455H15.9091C15.6581 27.5455 15.4545 27.3419 15.4545 27.0909C15.4545 26.8399 15.6581 26.6364 15.9091 26.6364H24.0909C24.3419 26.6364 24.5455 26.8399 24.5455 27.0909Z" fill="#B2E2F3"/>
</g>
</svg>
