<svg width="40" height="40" viewBox="0 0 40 40" fill="none" xmlns="http://www.w3.org/2000/svg">
<mask id="mask0_411_898" style="mask-type:alpha" maskUnits="userSpaceOnUse" x="0" y="0" width="40" height="40">
<rect width="40" height="40" fill="#D9D9D9"/>
</mask>
<g mask="url(#mask0_411_898)">
<path fill-rule="evenodd" clip-rule="evenodd" d="M19.8511 14.9217C16.9626 16.299 13.8869 17.7657 10.4253 15.9512C10.1859 15.8257 10.107 15.5248 10.2408 15.2899V15.2899C10.3786 15.0479 10.6887 14.9688 10.9367 15.0956C13.9447 16.6332 16.6035 15.3662 19.5789 13.9486L19.5861 13.9451C22.5404 12.5374 25.7829 11.0023 29.5669 12.8507C29.8101 12.9695 29.8992 13.2676 29.7733 13.5072V13.5072C29.6437 13.7538 29.3363 13.8437 29.0851 13.7235C25.7876 12.1459 22.9691 13.436 19.9978 14.8518C19.9489 14.8751 19.9001 14.8984 19.8511 14.9217ZM15.4623 20.5976C14.0006 20.8797 12.3997 20.7931 10.5058 20.0465C10.253 19.9469 10.1377 19.6572 10.2426 19.4065V19.4065C10.35 19.1496 10.6473 19.0321 10.9068 19.133C12.6171 19.7978 14.0195 19.8585 15.2816 19.6149C16.6786 19.3452 17.9294 18.7003 19.2936 17.9961C20.6411 17.3005 22.0886 16.5535 23.7997 16.1797C25.4104 15.8278 27.2369 15.809 29.4399 16.4271C29.7026 16.5008 29.8489 16.7776 29.7705 17.0391V17.0391C29.6907 17.3056 29.4082 17.4542 29.1401 17.3799C27.1031 16.815 25.4475 16.8422 24.0033 17.1577C22.4328 17.5008 21.0916 18.1877 19.7329 18.8891L19.6817 18.9156C18.3558 19.6001 16.9978 20.3012 15.4623 20.5976ZM20.7432 22.523C18.2924 23.8955 15.0367 25.7188 10.4662 23.5896C10.2205 23.4752 10.1228 23.1801 10.2417 22.9366V22.9366C10.3639 22.6862 10.6682 22.5865 10.9211 22.7033C14.9658 24.5701 17.6879 23.0612 20.1032 21.7225C20.6331 21.4288 21.1482 21.1432 21.6592 20.9033C21.9113 20.785 22.2058 20.9116 22.3071 21.1709V21.1709C22.406 21.4243 22.2832 21.7099 22.0385 21.8284C21.6327 22.0248 21.202 22.266 20.7432 22.523Z" fill="#B2E2F3"/>
<path fill-rule="evenodd" clip-rule="evenodd" d="M26.8561 18.5L27.2421 19.0392C29.4858 22.1735 30.1056 24.6345 29.7615 26.3802C29.4106 28.1604 28.07 29.0987 26.7133 29.1C25.3531 29.1014 24.0297 28.1599 23.7294 26.371C23.4363 24.6253 24.1279 22.1664 26.4604 19.0318L26.8561 18.5Z" fill="#F9E8AF"/>
</g>
</svg>
