<svg width="40" height="40" viewBox="0 0 40 40" fill="none" xmlns="http://www.w3.org/2000/svg">
<mask id="mask0_411_888" style="mask-type:alpha" maskUnits="userSpaceOnUse" x="0" y="0" width="40" height="40">
<rect width="40" height="40" fill="#D9D9D9"/>
</mask>
<g mask="url(#mask0_411_888)">
<path fill-rule="evenodd" clip-rule="evenodd" d="M15 12.5C15 11.1193 16.1191 10 17.5 10C18.8809 10 20 11.1193 20 12.5V21.7578C21.2061 22.565 22 23.9398 22 25.5C22 27.9853 19.9854 30 17.5 30C15.0146 30 13 27.9853 13 25.5C13 23.9398 13.7939 22.565 15 21.7578V12.5ZM18 24.5C18 24.2239 17.7761 24 17.5 24C17.2239 24 17 24.2239 17 24.5V26.8529C17 27.1291 17.2239 27.3529 17.5 27.3529C17.7761 27.3529 18 27.1291 18 26.8529V24.5Z" fill="#B2E2F3"/>
<path fill-rule="evenodd" clip-rule="evenodd" d="M21.3242 20C21.3242 19.7239 21.5481 19.5 21.8242 19.5H24.1772C24.4533 19.5 24.6772 19.7239 24.6772 20C24.6772 20.2761 24.4533 20.5 24.1772 20.5H21.8242C21.5481 20.5 21.3242 20.2761 21.3242 20Z" fill="#B2E2F3"/>
<path fill-rule="evenodd" clip-rule="evenodd" d="M21.3242 17.6471C21.3242 17.3709 21.5481 17.1471 21.8242 17.1471H24.1772C24.4533 17.1471 24.6772 17.3709 24.6772 17.6471C24.6772 17.9232 24.4533 18.1471 24.1772 18.1471H21.8242C21.5481 18.1471 21.3242 17.9232 21.3242 17.6471Z" fill="#B2E2F3"/>
<path fill-rule="evenodd" clip-rule="evenodd" d="M21.3242 15.2941C21.3242 15.018 21.5481 14.7941 21.8242 14.7941H24.1772C24.4533 14.7941 24.6772 15.018 24.6772 15.2941C24.6772 15.5703 24.4533 15.7941 24.1772 15.7941H21.8242C21.5481 15.7941 21.3242 15.5703 21.3242 15.2941Z" fill="#B2E2F3"/>
<path fill-rule="evenodd" clip-rule="evenodd" d="M21.3242 12.9412C21.3242 12.665 21.5481 12.4412 21.8242 12.4412H26.5301C26.8062 12.4412 27.0301 12.665 27.0301 12.9412C27.0301 13.2173 26.8062 13.4412 26.5301 13.4412H21.8242C21.5481 13.4412 21.3242 13.2173 21.3242 12.9412Z" fill="#B2E2F3"/>
</g>
</svg>
