<svg width="40" height="40" viewBox="0 0 40 40" fill="none" xmlns="http://www.w3.org/2000/svg">
<mask id="mask0_411_893" style="mask-type:alpha" maskUnits="userSpaceOnUse" x="0" y="0" width="40" height="40">
<rect width="40" height="40" fill="#D9D9D9"/>
</mask>
<g mask="url(#mask0_411_893)">
<path fill-rule="evenodd" clip-rule="evenodd" d="M17.6415 12.1321C16.6516 12.1321 15.8491 12.9346 15.8491 13.9245V14.2615C15.8491 14.5741 15.5956 14.8275 15.283 14.8275C14.9704 14.8275 14.717 14.5741 14.717 14.2615V13.9245C14.717 12.3094 16.0263 11 17.6415 11C19.2567 11 20.566 12.3094 20.566 13.9245C20.566 15.5397 19.2567 16.8491 17.6415 16.8491H16.2264C15.9138 16.8491 15.6604 16.5956 15.6604 16.283C15.6604 15.9704 15.9138 15.717 16.2264 15.717H17.6415C18.6314 15.717 19.434 14.9145 19.434 13.9245C19.434 12.9346 18.6314 12.1321 17.6415 12.1321ZM26.1321 13.0755C24.6211 13.0755 23.3962 14.3003 23.3962 15.8113V16.283C23.3962 16.5956 23.1428 16.8491 22.8302 16.8491C22.5176 16.8491 22.2642 16.5956 22.2642 16.283V15.8113C22.2642 13.6751 23.9959 11.9434 26.1321 11.9434C28.2683 11.9434 30 13.6751 30 15.8113C30 17.9475 28.2683 19.6792 26.1321 19.6792H20.2359C19.9232 19.6792 19.6698 19.4258 19.6698 19.1132C19.6698 18.8006 19.9232 18.5472 20.2359 18.5472H26.1321C27.643 18.5472 28.8679 17.3223 28.8679 15.8113C28.8679 14.3003 27.643 13.0755 26.1321 13.0755ZM10.9434 16.283C10.9434 15.9704 11.1968 15.717 11.5094 15.717H13.3962C13.7088 15.717 13.9623 15.9704 13.9623 16.283C13.9623 16.5956 13.7088 16.8491 13.3962 16.8491H11.5094C11.1968 16.8491 10.9434 16.5956 10.9434 16.283ZM10 19.1132C10 18.8006 10.2534 18.5472 10.566 18.5472H16.2264C16.539 18.5472 16.7925 18.8006 16.7925 19.1132C16.7925 19.4258 16.539 19.6792 16.2264 19.6792H10.566C10.2534 19.6792 10 19.4258 10 19.1132ZM11.8868 21.9434C11.8868 21.6308 12.1402 21.3774 12.4528 21.3774H13.3962C13.7088 21.3774 13.9623 21.6308 13.9623 21.9434C13.9623 22.256 13.7088 22.5094 13.3962 22.5094H12.4528C12.1402 22.5094 11.8868 22.256 11.8868 21.9434ZM16.6038 21.9434C16.6038 21.6308 16.8572 21.3774 17.1698 21.3774H26.1321C28.2683 21.3774 30 23.1091 30 25.2453C30 27.3815 28.2683 29.1132 26.1321 29.1132C23.9959 29.1132 22.2642 27.3815 22.2642 25.2453V24.7736C22.2642 24.461 22.5176 24.2075 22.8302 24.2075C23.1428 24.2075 23.3962 24.461 23.3962 24.7736V25.2453C23.3962 26.7563 24.6211 27.9811 26.1321 27.9811C27.643 27.9811 28.8679 26.7563 28.8679 25.2453C28.8679 23.7343 27.643 22.5094 26.1321 22.5094H17.1698C16.8572 22.5094 16.6038 22.256 16.6038 21.9434Z" fill="#B2E2F3"/>
</g>
</svg>
